<svg xmlns="http://www.w3.org/2000/svg" width="12" height="25" viewBox="0 0 12 25">
    <path fill="#020201" fill-rule="evenodd" d="M3.972 1.285C4.966.359 6.38.046 7.713.007c1.41-.012 2.82-.005 4.23-.004.006 1.456.006 2.912 0 4.368-.912-.002-1.824.002-2.735-.002-.578-.035-1.171.394-1.276.954-.014.975-.005 1.95-.005 2.923 1.337.006 2.674-.001 4.01.004a53.303 53.303 0 0 1-.486 4.21c-1.18.01-2.362-.002-3.543.005-.01 4.157.006 8.313-.008 12.47-1.754.007-3.508-.004-5.262.005-.033-4.157.003-8.317-.018-12.474-.856-.009-1.712.006-2.568-.007.004-1.398.002-2.795.002-4.192.855-.01 1.71.002 2.566-.006.026-1.358-.026-2.718.027-4.076.085-1.075.504-2.158 1.325-2.9z"/>
</svg>
