<svg xmlns="http://www.w3.org/2000/svg" width="29" height="23" viewBox="0 0 29 23">
    <path fill="#000" fill-rule="evenodd" d="M29 2.829c-1.018.492-2.162.738-3.434.86 1.272-.737 2.162-1.844 2.67-3.197-1.144.615-2.416 1.107-3.815 1.353C23.276.738 21.75 0 20.096 0c-3.307 0-5.978 2.583-5.978 5.78 0 .493 0 .862.128 1.354C9.286 7.01 4.96 4.674 1.908 1.23a5.567 5.567 0 0 0-.763 2.829c0 1.968 1.017 3.813 2.67 4.797-1.017 0-1.907-.246-2.67-.738v.123c0 2.829 2.035 5.165 4.833 5.657-.636.123-1.145.246-1.653.246-.382 0-.764 0-1.145-.123.763 2.337 2.925 3.936 5.596 4.06-2.035 1.598-4.579 2.46-7.377 2.46-.509 0-1.017 0-1.399-.124C2.671 22.016 5.724 23 9.158 23c10.938 0 17.044-8.856 17.044-16.481V5.78c1.017-.738 2.035-1.845 2.798-2.952z"/>
</svg>
